<?xml version="1.0" encoding="utf-8"?>
<!-- Generator: Adobe Illustrator 26.0.1, SVG Export Plug-In . SVG Version: 6.00 Build 0)  -->
<svg version="1.1" id="Layer_1" xmlns="http://www.w3.org/2000/svg" xmlns:xlink="http://www.w3.org/1999/xlink" x="0px" y="0px"
	 viewBox="0 0 149 166" style="enable-background:new 0 0 149 166;" xml:space="preserve">
<style type="text/css">
	.st0{fill:#FFFFFF;}
</style>
<path class="st0" d="M16.4,148.2H8.5v-17.8c0-2.8,3.9-2.5,3.9-2.5v16.8H19C19,144.8,19.5,148.2,16.4,148.2z"/>
<path class="st0" d="M29.2,145.7c0,0-2.6,2.8-4.8,2.8c-2.2,0.2-4.1-1.5-4.3-3.7c0-0.2,0-0.4,0-0.6c0-3.5,3.4-5.2,8.6-5.2v-0.5
	c0-1.8-0.7-2.6-2.7-2.6c-0.8,0-1.5,0.1-2.2,0.3c-0.8,0.2-1.5,0.4-2.3,0.7c-0.6-1.3,0-2.9,1.4-3.5c0.2-0.1,0.5-0.2,0.7-0.2l0,0
	c1-0.2,1.9-0.3,2.9-0.3c4.6,0,6,1.9,6,5.3v6.2c0,1.2,0,2.6,0.1,3.9C32.7,148.2,29.2,149,29.2,145.7z M28.8,141.6
	c-3.9,0-4.9,1-4.9,2.2c0,0.9,0.7,1.7,1.7,1.7c0,0,0.1,0,0.1,0c1.8-0.2,3.2-1.8,3.1-3.6L28.8,141.6z"/>
<path class="st0" d="M37.3,133.2h10.4L40,144.7c0.6,0,3.5,0,4.6,0h2.6c0,0,0.4,3.5-2.7,3.5h-11l7.8-11.5h-7.2
	C34.1,132.7,37.3,133.2,37.3,133.2z"/>
<path class="st0" d="M58.3,148.2c-1,0.3-2,0.4-3.1,0.4c-4.7,0-7.3-2.5-7.3-7.7c0-4.5,2.7-7.9,7.1-7.9s6.2,2.8,6.2,6.3
	c0,0.7,0,1.5-0.2,2.2h-9.2c0,2.6,1.2,4,4.1,4c1.5,0,3-0.3,4.3-0.9c0.5,1.5-0.3,3-1.8,3.5C58.5,148.1,58.4,148.2,58.3,148.2z
	 M54.9,135.8c-1.6,0-2.7,1.2-2.9,3.1h5.5C57.5,136.9,56.5,135.8,54.9,135.8z"/>
<path class="st0" d="M66.8,133.2c0,0.4-0.1,1.7,0,2.7l0,0c0.9-1.9,2.8-3.1,4.9-3c1.9-0.2,3.7,1.1,4.1,3c0.9-1.9,2.8-3,4.9-3
	c2.9,0,4.5,1.6,4.5,4.9v8c0,0,0,2.5-3.8,2.5v-9.7c0-1.6-0.4-2.6-1.8-2.6c-1.7,0-3.4,2-3.4,4.9v5c0,0,0.4,2.4-3.8,2.4v-9.7
	c0-1.5-0.3-2.6-1.8-2.6c-1.8,0-3.4,2.1-3.4,4.9v4.8c0,0,0.4,2.6-3.8,2.6v-12.8C63.3,133,66.8,133.2,66.8,133.2z"/>
<path class="st0" d="M126.1,148.2h11.5v-17.8c0-2.8-3.9-2.5-3.9-2.5v16.8h-10.1C123.5,144.8,123,148.2,126.1,148.2z"/>
<path class="st0" d="M127.9,129.7l3.8,13.6h-4l-4.3-15.3C123.3,127.9,127.2,127.3,127.9,129.7z"/>
<path class="st0" d="M114.4,154.9c-3.3,0.4-3.2-3-3.2-3h2.4c2,0,3.2-0.9,3.2-4.1v-14.9c0,0,3.9-0.3,3.9,2.3v12.3
	C120.7,151.1,119.5,154.3,114.4,154.9z"/>
<path class="st0" d="M116.8,128.4v3.9h3.9v-1.6C120.7,128.1,116.8,128.4,116.8,128.4z"/>
<path class="st0" d="M93.5,154.7l-0.5-3l-1-6.3c-0.7-4.2,0.8-7.1,5.5-7.1h0.7c0.7-3,3.2-5.4,7.3-5.4c4.6,0,6.6,2.6,6.6,6.7v8.5h-6.4
	c-6.7,0-7.3-3.2-7.7-6.7h-0.6c-1.7,0-2.2,1-1.7,3.7l0.9,5.6C96.6,150.7,97.6,154.2,93.5,154.7z M108.5,140.2c0-2.9-1.2-4.1-3.1-4.1
	c-2.2,0-3.5,1.7-3.5,3.9c0,2.8,0.1,5.1,4.4,5.1h2.2V140.2z"/>
<path class="st0" d="M123,20.5C108.2,8.6,87,9.3,73,22.1C57.4,7.7,33.1,8.6,18.7,24.2C5.7,38.2,5,59.7,17,74.5
	c8.1,9.6,22.2,16,41.7,8.9c9.8-3.6,15-4.9,26.3,1.4l1.8,1c1.3,0.6,3.2,1.4,4.8,2c3,1.1,6.5,2.4,3.3,4.6c-0.8,0.6-1.8,1.1-2.8,1.3
	c2.5,0.4,5.1,0.4,7.6,0c7.3-1.1,19.1-9.1,26.4-17.8c0.1-0.1,6.9-6.4,9.5-13.8C140.4,46.9,135.4,30.4,123,20.5z M76.4,30.5
	c0.9,0,1.6,0.7,1.6,1.6c0,0.9-0.7,1.6-1.6,1.6s-1.6-0.7-1.6-1.6c0,0,0,0,0,0C74.8,31.3,75.6,30.5,76.4,30.5z M65,52.7
	c0,0-0.7,1.6-1.6,1.6l-16-0.8l0,0c-0.4,0-0.8-0.4-0.8-0.8s0.4-0.8,0.8-0.8l0,0h0.1l16.3-0.8c0.3-0.4,0.6-1,0.8-1.2s0.2-0.3,0.2-0.3
	c0.2-0.6,0.7-0.9,1.3-1c0.6,0.1,0.8,0.9,0.9,1.3V50l1.2,3.8c0.1,0.9-0.4,1.7-1.3,1.8c0,0,0,0,0,0h-0.3c-0.8,0-1.4-0.6-1.6-1.3
	L65,52.7z M65.5,57.7c0-0.9,0.7-1.6,1.6-1.6c0.9,0,1.6,0.7,1.6,1.6c0,0.9-0.7,1.6-1.6,1.6c0,0,0,0,0,0
	C66.3,59.4,65.5,58.7,65.5,57.7C65.5,57.7,65.5,57.7,65.5,57.7L65.5,57.7z M66,61.3c0-0.9,0.7-1.6,1.6-1.6c0.9,0,1.6,0.7,1.6,1.6
	c0,0.9-0.7,1.6-1.6,1.6l0,0C66.7,62.9,66,62.2,66,61.3C66,61.3,66,61.3,66,61.3z M100.2,48.8L100.2,48.8l-16,0.8H84
	c-1.8,0-1.9-1.7-2.2-2c-0.4,1.9-0.8,2.3-1.3,2.5c-0.2,0.1-0.5,0.1-0.7,0.1c-0.9,0-1.7-0.6-1.8-1.5v-0.3l-1.2-9.8L72.9,69
	c-0.1,1.5-1.4,2.6-2.9,2.5c-1.4-0.1-2.4-1.2-2.5-2.5l-0.8-3.8c-0.2-0.9,0.4-1.7,1.2-1.9s1.7,0.4,1.9,1.2l0.3,3.5l3.8-31
	c0.1-1.4,1.3-2.6,2.7-2.5c1.4,0,2.6,1.1,2.7,2.5l1.4,8.7c0.3-0.5,0.6-1.8,1.2-1.8c0.4,0,0.7,0.3,1,1.2c0.3,0.6,0.5,1,0.6,1.2
	l16.7,0.8l0,0c0.4,0,0.8,0.3,0.8,0.8C101,48.5,100.6,48.8,100.2,48.8L100.2,48.8z"/>
<path class="st0" d="M82.9,93.1l-3.4-1.5c0,0-4.4-1.9-6.6-1.9c-2.2,0.1-4.4,0.6-6.4,1.7c-5.6,2.7-10.2,5.8-18.1,8.8
	c-3,1.1-6.5,2.4-3.3,4.6c1.6,1.1,4.3,3.3,13.3-0.5c8.1-3.4,13.8-5.4,21.5-1.4c0,0,2.3,1.1,2.6,3.3c0.1,1.2-1,2.4-5.7,2.5
	c-1.9,0.3-3.6,1-5.1,2.1c-2.2,1.8-4.1,1.7-6.2,2.1c-2.8,0.5-4.2,1.7-4.2,3.2c0,1,0.4,1.8,2.3,2.8c2.1,0.9,4.4,1.4,6.7,1.4
	c1.4,0,2.7-0.1,4.1-0.2c10.5-1.2,20.3-6.1,27.5-13.8c3.9-4.2,13.2-15.2,19.4-22.6c-7.1,6.3-15.5,11.1-21.3,12
	c-1.4,0.2-2.8,0.3-4.2,0.3c-2.5,0-4.9-0.3-7.3-0.9C86.6,94.6,84.7,93.9,82.9,93.1z"/>
</svg>
